<svg class="bloqs-logo-svg" data-name="Layer 1" xmlns="http://www.w3.org/2000/svg" viewBox="0 0 222.93 66.29">
  <path class="bloqs-logo-1" d="M301.08,245.93h22.79c5.59,0,9.52,1.4,12.13,4a9.75,9.75,0,0,1,2.86,7.17v0.13c0,5.14-2.92,8.19-6.86,9.9,5.4,1.78,8.83,4.83,8.83,10.86v0.13c0,7.62-6.22,12.25-16.83,12.25H301.08V245.93Zm19.75,17.71c3.75,0,5.84-1.27,5.84-3.87v-0.13c0-2.41-1.9-3.81-5.59-3.81h-8v7.81h7.75Zm1.78,16.83c3.75,0,5.91-1.46,5.91-4.06v-0.13c0-2.41-1.91-4-6-4h-9.4v8.19h9.52Z" transform="translate(-301.08 -225.42)"/>
  <path class="bloqs-logo-1" d="M346.48,245.93H358.8v33.65h21.52v10.79H346.48V245.93Z" transform="translate(-301.08 -225.42)"/>
  <path class="bloqs-logo-1" d="M381.53,268.28v-0.13c0-12.76,10.29-23.11,24-23.11s23.87,10.22,23.87,23v0.13c0,12.76-10.29,23.11-24,23.11S381.53,281,381.53,268.28Zm35.3,0v-0.13c0-6.41-4.63-12-11.43-12s-11.24,5.46-11.24,11.87v0.13c0,6.41,4.63,12,11.37,12S416.83,274.7,416.83,268.28Z" transform="translate(-301.08 -225.42)"/>
  <path class="bloqs-logo-1" d="M471.69,287.33a24.69,24.69,0,0,1-13.52,3.94c-13.71,0-23.87-10.22-23.87-23v-0.13c0-12.76,10.29-23.11,24-23.11s23.87,10.22,23.87,23v0.13a22.16,22.16,0,0,1-3.94,12.76l4.57,3.87-6.22,6.92Zm-8.89-7.81-6.16-5.27,6.22-7,6,5.46a12.11,12.11,0,0,0,.76-4.32v-0.13c0-6.48-4.63-12.13-11.49-12.13s-11.24,5.59-11.24,12v0.13c0,6.41,4.57,12.06,11.36,12.06A12.67,12.67,0,0,0,462.8,279.52Z" transform="translate(-301.08 -225.42)"/>
  <path class="bloqs-logo-1" d="M485.22,283.78l6.86-8.19a22.89,22.89,0,0,0,14.41,5.33c3.3,0,5.08-1.14,5.08-3v-0.13c0-1.84-1.46-2.86-7.49-4.25-9.46-2.16-16.76-4.83-16.76-14V259.4c0-8.25,6.54-14.22,17.21-14.22,7.56,0,13.46,2,18.29,5.9l-6.16,8.7a22.29,22.29,0,0,0-12.44-4.38c-3,0-4.44,1.27-4.44,2.86v0.13c0,2,1.52,2.92,7.68,4.32,10.22,2.22,16.57,5.52,16.57,13.84v0.13c0,9.08-7.17,14.48-18,14.48C498.17,291.14,490.68,288.66,485.22,283.78Z" transform="translate(-301.08 -225.42)"/>
  <path class="bloqs-logo-1" d="M450.14,238.64a4.78,4.78,0,0,0,2-4,5.11,5.11,0,0,0-.84-2.89,5.42,5.42,0,0,0-2.39-2,8.55,8.55,0,0,0-3.51-.69,8.84,8.84,0,0,0-3.64.72,5.76,5.76,0,0,0-2.49,2,5.17,5.17,0,0,0-.89,3,4.76,4.76,0,0,0,.88,2.81,5.71,5.71,0,0,0,2.46,1.93,8.66,8.66,0,0,0,3.5.69,9.78,9.78,0,0,0,1.59-.13l4.38,1.23,1.05-.39Zm-8.49-2.87a0.91,0.91,0,1,1,1.08-.89A1,1,0,0,1,441.64,235.78Zm3.6,0a0.91,0.91,0,1,1,1.08-.89A1,1,0,0,1,445.25,235.78Zm3.48,0a0.91,0.91,0,1,1,1.08-.89A1,1,0,0,1,448.73,235.78Z" transform="translate(-301.08 -225.42)"/>
  <path class="bloqs-logo-1" d="M415.45,242.55l1.53,0.56,6.33-1.78a14.14,14.14,0,0,0,2.3.18,12.52,12.52,0,0,0,5.06-1,8.26,8.26,0,0,0,3.55-2.79,6.88,6.88,0,0,0,1.27-4.06,7.48,7.48,0,0,0-1.28-4.27,8.33,8.33,0,0,0-3.6-2.94,12.79,12.79,0,0,0-5.27-1,12.37,12.37,0,0,0-5.08,1,7.84,7.84,0,0,0-3.46,2.83,7.39,7.39,0,0,0-1.22,4.17,6.91,6.91,0,0,0,2.82,5.83Zm13.67-8.73a1.6,1.6,0,1,1,1.57,1.29A1.45,1.45,0,0,1,429.12,233.81Zm-5.21,0a1.6,1.6,0,1,1,1.57,1.29A1.45,1.45,0,0,1,423.91,233.81Zm-5,0a1.6,1.6,0,1,1,1.57,1.29A1.45,1.45,0,0,1,418.88,233.81Z" transform="translate(-301.08 -225.42)"/>
</svg>
