<svg class="onion-diagram" data-name="Layer 1" xmlns="http://www.w3.org/2000/svg" viewBox="0 0 400.51 388.28" title="Dev Note: This will be animated to show details of each layer on click">
  <path class="onion-diagram-1" d="M546.32,55.25c-107.22,0-194.14,86.92-194.14,194.14S439.1,443.53,546.32,443.53s194.14-86.92,194.14-194.14H546.32V55.25Z" transform="translate(-352.18 -55.25)"/>
  <path class="onion-diagram-2" d="M546.32,87.52A162.11,162.11,0,1,0,708.43,249.63H546.32V87.52Z" transform="translate(-352.18 -55.25)"/>
  <text class="onion-diagram-3" transform="translate(208.52 12.36)">1) Biographical Data <tspan x="0" y="14.4">(Age, Gender, Name)</tspan></text>
  <text class="onion-diagram-3" transform="translate(208.52 45.43)">2) Preferences <tspan x="0" y="14.4">(clothes, food, music)</tspan></text>
  <text class="onion-diagram-3" transform="translate(206.66 84.01)">3) Goals and Aspirations</text>
  <text class="onion-diagram-3" transform="translate(208.52 109.7)">4) Religious and Spiritual <tspan x="0" y="14.4">Convictions</tspan></text>
  <text class="onion-diagram-3" transform="translate(208.52 148.27)">5) Deep Fears and Fantasies</text>
  <text class="onion-diagram-3" transform="translate(208.52 181.18)">6) Concept of Self</text>
  <rect class="onion-diagram-4" x="193.14" y="174.49" width="8.5" height="8.5"/>
  <rect class="onion-diagram-5" x="193.14" y="141.58" width="8.5" height="8.5"/>
  <rect class="onion-diagram-6" x="193.14" y="109.45" width="8.5" height="8.5"/>
  <rect class="onion-diagram-7" x="193.14" y="77.32" width="8.5" height="8.5"/>
  <rect class="onion-diagram-2" x="193.14" y="45.19" width="8.5" height="8.5"/>
  <rect class="onion-diagram-1" x="193.14" y="12.89" width="8.5" height="8.5"/>
  <path class="onion-diagram-7" d="M546.32,119.55A130.08,130.08,0,1,0,676.4,249.63H546.32V119.55Z" transform="translate(-352.18 -55.25)"/>
  <path class="onion-diagram-6" d="M546.32,151.58a98,98,0,1,0,98,98h-98v-98Z" transform="translate(-352.18 -55.25)"/>
  <path class="onion-diagram-5" d="M546.32,184a65.62,65.62,0,1,0,65.62,65.62H546.32V184Z" transform="translate(-352.18 -55.25)"/>
  <path class="onion-diagram-4" d="M546.32,216a33.59,33.59,0,1,0,33.59,33.59H546.32V216Z" transform="translate(-352.18 -55.25)"/>
</svg>
