<svg class="qubes-logo-svg" data-name="Layer 1" xmlns="http://www.w3.org/2000/svg" viewBox="0 0 58.35 62.67">
  <path class="qubes-logo-1" d="M412.33,311.35c5.75-5.51,8.22-12.13,8.22-20.66A30.45,30.45,0,0,0,417,275.91a24.48,24.48,0,0,0-10.08-10,30.54,30.54,0,0,0-14.78-3.52A31.59,31.59,0,0,0,376.81,266a26,26,0,0,0-10.48,10.4,30.74,30.74,0,0,0-3.73,15.14,28.16,28.16,0,0,0,3.69,14.4,25.48,25.48,0,0,0,10.34,9.87,30.92,30.92,0,0,0,14.74,3.52,34,34,0,0,0,6.71-.65L416.51,325l4.44-2Zm-35.75-14.68a4.56,4.56,0,1,1,4.56-4.56A4.57,4.57,0,0,1,376.58,296.67Zm15.17,0a4.56,4.56,0,1,1,4.56-4.56A4.56,4.56,0,0,1,391.75,296.67Zm14.65,0a4.56,4.56,0,1,1,4.56-4.56A4.56,4.56,0,0,1,406.4,296.67Z" transform="translate(-362.6 -262.36)"/>
</svg>
